<svg width="852" height="594" viewBox="0 0 852 594" fill="none" xmlns="http://www.w3.org/2000/svg">
<rect width="852" height="594" fill="#F5F5F5"/>
<g clip-path="url(#clip0_0_1)">
<path d="M106.029 527.613L119.193 527.924L114.22 567.999L105.3 567.789L106.029 527.613Z" fill="#FFB6B6"/>
<path d="M135.904 586.399C135.904 585.311 135.338 584.326 134.464 583.895L124.639 579.041L117.941 563.507L117.84 547.856L104.037 546.233L102.041 556.203C102.041 556.203 106.151 555.59 101.077 559.995C96.0026 564.4 98.446 573.019 98.446 573.019L97.3393 589.128H106.473L106.963 579.109C114.067 582.124 115.81 589.128 115.81 589.128H133.516C134.835 589.128 135.904 587.906 135.904 586.399Z" fill="#2F2E41"/>
<path d="M125.311 528.054L138.475 528.365L133.503 568.44L124.583 568.23L125.311 528.054Z" fill="#FFB6B6"/>
<path d="M155.187 586.84C155.187 585.752 154.621 584.768 153.746 584.336L143.922 579.482L137.224 563.948L137.122 548.297L123.32 546.674L121.324 556.644C121.324 556.644 125.434 556.031 120.359 560.436C115.285 564.842 117.728 573.46 117.728 573.46L116.622 589.569H125.756L126.246 579.55C133.35 582.565 135.092 589.569 135.092 589.569H152.798C154.117 589.569 155.187 588.347 155.187 586.84Z" fill="#2F2E41"/>
<path d="M110.215 292.991L95.2914 328.624C90.3169 340.502 88.7404 353.529 90.7379 366.25L97.991 541.304H126.668L139.185 385.419L141.655 446.995L112.947 534.728H141.182L177.424 446.995L180.11 379.441L167.235 327.019L110.215 292.991Z" fill="#2F2E41"/>
<path d="M514.509 140.519V51.5136C514.509 23.0634 491.446 7.18343e-09 462.996 7.18343e-09H274.422C245.971 -0.000469993 222.908 23.0626 222.907 51.5128V539.804C222.907 568.254 245.97 591.317 274.421 591.317H462.993C491.443 591.317 514.507 568.254 514.507 539.804V203.875C516.299 203.875 517.752 202.422 517.752 200.63L517.754 143.764C517.754 141.972 516.301 140.519 514.509 140.519Z" fill="#3F3D56"/>
<path d="M504.836 47.2305V542.42C474.73 540.57 490.043 580.237 465.78 581.484H273.337C251.758 581.487 234.261 563.998 234.255 542.42V47.2305C234.261 25.6525 251.757 8.1642 273.335 8.16696H287.527C283.662 17.6715 314.855 20.7637 317.246 20.7668H415.805C426.065 20.7538 450.819 10.3821 449.918 8.16696H465.772C487.342 8.17065 504.828 25.6533 504.836 47.223V47.2305Z" fill="white"/>
<path d="M221.39 151.421C220.018 151.421 218.902 152.537 218.902 153.91V173.817C218.902 175.19 220.018 176.306 221.39 176.306C222.763 176.306 223.879 175.19 223.879 173.817V153.91C223.879 152.537 222.763 151.421 221.39 151.421Z" fill="#3F3D56"/>
<path d="M221.39 211.144C220.018 211.144 218.902 212.26 218.902 213.632V252.203C218.902 253.575 220.018 254.691 221.39 254.691C222.763 254.691 223.879 253.575 223.879 252.203V213.632C223.879 212.26 222.763 211.144 221.39 211.144Z" fill="#3F3D56"/>
<path d="M221.39 265.889C220.018 265.889 218.902 267.005 218.902 268.378V306.948C218.902 308.321 220.018 309.437 221.39 309.437C222.763 309.437 223.879 308.321 223.879 306.948V268.378C223.879 267.005 222.763 265.889 221.39 265.889Z" fill="#3F3D56"/>
<path d="M808.331 559.842L796.522 567.931L759.701 526.233L777.13 514.295L808.331 559.842Z" fill="#FFB6B6"/>
<path d="M767.691 587.29C767.748 588.161 768.923 590.293 769.417 591.013C770.933 593.226 773.956 593.791 776.17 592.275L812.738 567.222C814.248 566.188 814.633 564.125 813.599 562.615L812.556 561.093C812.556 561.093 811.23 555.278 803.642 552.189C803.642 552.189 802.038 559.777 790.383 557.599L785.812 555.301L778.445 576.214L770.951 582.828C769.312 584.275 767.55 585.108 767.691 587.29Z" fill="#2F2E41"/>
<path d="M721.269 581.316L706.956 581.314L700.147 526.105L717.667 528.287L721.269 581.316Z" fill="#FFB6B6"/>
<path d="M672.23 580.991C671.784 581.742 671.549 584.164 671.549 585.037C671.549 587.72 673.724 589.895 676.407 589.895H720.733C722.564 589.895 724.048 588.411 724.048 586.581V584.735C724.048 584.735 726.24 579.189 721.726 572.352C721.726 572.352 716.115 577.705 707.73 569.321L705.258 564.842L687.361 577.931L677.441 579.152C675.27 579.419 673.346 579.111 672.23 580.991Z" fill="#2F2E41"/>
<path d="M671.085 371.505L672.162 384.524L670.019 394.877L673.922 405.792L678.696 463.502L703.58 563L722.58 567L713.459 467.613L720.534 385.635L671.085 371.505Z" fill="#2F2E41"/>
<path d="M751.825 314.985L679.159 315.994L671.085 371.502L720.534 394.715L718.956 473.991L774.028 553.71L803.359 536.953L754.21 469.252L767.973 356.363L751.825 314.985Z" fill="#2F2E41"/>
<path d="M698.034 184.487L685.214 200.94L691.27 327.095L738.704 326.086L746.778 216.079L736.686 187.82L733.034 181.487L728.667 173.287L700.667 175.287L698.034 184.487Z" fill="#E6E6E6"/>
<path d="M679.103 262.504L681.667 288.287L678.517 317.956L674.58 326L665.58 358C665.58 358 656.395 371.994 676.58 373C696.765 374.006 762.926 367.459 762.926 367.459C762.926 367.459 771.175 367.255 767.58 350C761.773 340.02 765.517 325.956 765.517 325.956L757.88 297.821L759.898 271.581L774.028 202.952C761.479 193.09 747.424 186.032 732.144 181.252L718.761 216.442L698.836 184.28L691.267 189.831C681.058 192.508 672.073 196.625 664.967 202.951L679.103 262.504Z" fill="#2F2E41"/>
<path d="M439.546 201.291H297.111C287.348 201.28 279.436 193.368 279.425 183.605V122.38C279.436 112.617 287.348 104.705 297.111 104.694C342.561 92.1018 390.229 93.2818 439.546 104.694C449.309 104.705 457.22 112.617 457.231 122.38V183.605C457.22 193.368 449.309 201.279 439.546 201.291Z" fill="#F2F2F2"/>
<path d="M454.057 265.457H282.601C280.848 265.455 279.428 264.035 279.426 262.282V219.752C279.428 217.999 280.848 216.579 282.601 216.577H454.057C455.81 216.579 457.23 217.999 457.232 219.752V262.283C457.23 264.035 455.81 265.456 454.057 265.458V265.457ZM282.601 217.847C281.549 217.848 280.697 218.7 280.696 219.752V262.283C280.697 263.334 281.549 264.187 282.601 264.188H454.057C455.109 264.187 455.961 263.334 455.962 262.283V219.752C455.961 218.7 455.109 217.848 454.057 217.847H282.601Z" fill="#E6E6E6"/>
<path d="M335.625 232.123C334.397 232.149 333.423 233.165 333.449 234.392C333.475 235.583 334.434 236.543 335.625 236.568H440.403C441.63 236.615 442.662 235.658 442.709 234.431C442.756 233.204 441.8 232.172 440.573 232.125H335.625V232.123Z" fill="#E6E6E6"/>
<path d="M335.625 245.462C334.397 245.488 333.423 246.504 333.449 247.731C333.475 248.922 334.434 249.882 335.625 249.907H440.403C441.63 249.954 442.662 248.997 442.709 247.77C442.756 246.543 441.8 245.511 440.573 245.464H335.625V245.462Z" fill="#E6E6E6"/>
<path d="M306.192 249.909C311.102 249.909 315.083 245.928 315.083 241.018C315.083 236.107 311.102 232.127 306.192 232.127C301.282 232.127 297.301 236.107 297.301 241.018C297.301 245.928 301.282 249.909 306.192 249.909Z" fill="#E6E6E6"/>
<path d="M454.057 474.213H282.601C280.848 474.211 279.428 472.791 279.426 471.038V428.508C279.428 426.755 280.848 425.335 282.601 425.333H454.057C455.81 425.335 457.23 426.755 457.232 428.508V471.039C457.23 472.791 455.81 474.212 454.057 474.214V474.213ZM282.601 426.603C281.549 426.604 280.697 427.456 280.696 428.508V471.039C280.697 472.091 281.549 472.943 282.601 472.944L434.58 471.446C435.632 471.445 451.579 465.498 451.58 464.446L455.962 428.508C455.961 427.456 455.109 426.604 454.057 426.603H282.601Z" fill="#E6E6E6"/>
<path d="M335.625 447.219C334.397 447.193 333.381 448.167 333.355 449.394C333.33 450.622 334.304 451.638 335.531 451.664C335.562 451.664 335.594 451.664 335.625 451.664H440.403C441.63 451.711 442.662 450.754 442.709 449.527C442.756 448.3 441.8 447.268 440.573 447.221H335.625V447.219Z" fill="#E6E6E6"/>
<path d="M306.192 458.665C311.102 458.665 315.083 454.684 315.083 449.774C315.083 444.863 311.102 440.883 306.192 440.883C301.282 440.883 297.301 444.863 297.301 449.774C297.301 454.684 301.282 458.665 306.192 458.665Z" fill="#E6E6E6"/>
<path d="M454.057 386.213H282.601C280.848 386.211 279.428 384.791 279.426 383.038V340.508C279.428 338.755 280.848 337.335 282.601 337.333H454.057C455.81 337.335 457.23 338.755 457.232 340.508V383.039C457.23 384.791 455.81 386.212 454.057 386.214V386.213ZM282.601 338.603C281.549 338.604 280.697 339.456 280.696 340.508V383.039C280.697 384.091 281.549 384.943 282.601 384.944L434.58 383.446C435.632 383.445 451.579 377.498 451.58 376.446L455.962 340.508C455.961 339.456 455.109 338.604 454.057 338.603H282.601Z" fill="#E6E6E6"/>
<path d="M335.625 359.219C334.397 359.193 333.381 360.167 333.355 361.394C333.33 362.622 334.304 363.638 335.531 363.664C335.562 363.664 335.594 363.664 335.625 363.664H440.403C441.63 363.711 442.662 362.754 442.709 361.527C442.756 360.3 441.8 359.268 440.573 359.221H335.625V359.219Z" fill="#E6E6E6"/>
<path d="M306.192 370.665C311.102 370.665 315.083 366.684 315.083 361.774C315.083 356.863 311.102 352.883 306.192 352.883C301.282 352.883 297.301 356.863 297.301 361.774C297.301 366.684 301.282 370.665 306.192 370.665Z" fill="#E6E6E6"/>
<path d="M712.17 172.12C726.004 172.12 737.219 160.905 737.219 147.071C737.219 133.237 726.004 122.022 712.17 122.022C698.335 122.022 687.12 133.237 687.12 147.071C687.12 160.905 698.335 172.12 712.17 172.12Z" fill="#FFB6B6"/>
<path d="M730.567 167.652C731.947 167.888 733.567 164.543 735.115 161.286C738.355 154.467 740.415 150.133 740.571 144.006C740.705 138.784 739.254 140.154 737.843 128.545C737.378 124.715 730.836 124.723 729.504 122.904C727.255 119.833 730.706 118.566 725.11 116.721C714.629 113.265 709.89 118.634 703.233 119.096C703.065 119.108 699.765 122.335 697.923 122.502C694.694 122.794 690.036 122.291 687.948 117.372C685.995 112.772 684.702 126.214 686.447 127.877C687.929 129.289 690.485 132.834 690.55 133.092C690.624 133.384 684.472 126.57 683.446 129.378C682.707 131.399 685.033 141.796 686.912 142.187C688.483 142.514 692.326 137.334 691.459 139.458C689.448 144.385 701.54 147.528 716.015 137.639C716.529 137.289 716.044 137.848 717.834 142.187C720.093 147.659 720.602 147.956 720.563 149.463C720.477 152.725 718.028 153.686 718.744 155.829C719.324 157.565 721.59 158.909 723.291 158.558C725.211 158.161 725.54 155.787 726.929 155.829C728.119 155.865 729.532 157.658 729.658 159.467C729.923 163.279 724.28 164.327 723.291 169.471C722.733 172.375 729.299 167.436 730.567 167.652Z" fill="#2F2E41"/>
<path d="M787.255 367.879C787.363 365.074 786.798 362.284 785.608 359.742L788.187 330.509L774.237 329.689L773.123 359.436C771.807 361.916 771.103 364.674 771.072 367.482C770.897 374.504 774.378 380.286 778.845 380.398C783.312 380.509 787.077 374.907 787.252 367.886L787.255 367.879Z" fill="#FFB6B6"/>
<path d="M757.58 250L768.58 284L771.738 353.441L790.151 353.065L791.58 277C791.58 277 782.403 220.795 779.33 208.162C776.257 195.529 747.924 200.21 747.924 200.21L757.58 250Z" fill="#2F2E41"/>
<path d="M301.32 161.356C306.522 163.083 311.976 164.832 317.529 164.537C320.056 164.403 322.487 163.8 324.779 162.728C327.13 161.629 329.278 160.136 331.658 159.094C340.403 155.267 349.076 161.806 357.232 164.26C361.302 165.484 365.581 165.777 369.562 164.072C373.959 162.188 377.276 158.592 380.897 155.589C389.016 148.858 399.608 145.229 410.145 145.503C421.704 145.804 432.892 150.91 440.852 159.261C441.519 159.961 442.579 158.899 441.912 158.2C434.956 150.902 425.583 145.981 415.601 144.49C405.598 142.996 395.214 144.993 386.418 149.974C381.968 152.495 378.398 155.945 374.477 159.166C370.659 162.301 366.414 164.322 361.38 163.656C352.708 162.508 345.249 155.825 336.255 156.431C330.51 156.818 326.408 161.14 321.003 162.518C314.554 164.161 307.814 161.934 301.719 159.91C300.801 159.605 300.407 161.053 301.32 161.356Z" fill="#3F3D56"/>
<path d="M317.602 169.349C320.671 169.349 323.158 166.861 323.158 163.793C323.158 160.724 320.671 158.237 317.602 158.237C314.534 158.237 312.046 160.724 312.046 163.793C312.046 166.861 314.534 169.349 317.602 169.349Z" fill="#804A6A"/>
<path d="M365.566 169.595C368.635 169.595 371.122 167.107 371.122 164.039C371.122 160.97 368.635 158.483 365.566 158.483C362.498 158.483 360.01 160.97 360.01 164.039C360.01 167.107 362.498 169.595 365.566 169.595Z" fill="#804A6A"/>
<path d="M414.276 150.748C417.344 150.748 419.832 148.26 419.832 145.192C419.832 142.123 417.344 139.636 414.276 139.636C411.208 139.636 408.72 142.123 408.72 145.192C408.72 148.26 411.208 150.748 414.276 150.748Z" fill="#804A6A"/>
<path d="M91.8858 337.949C75.4589 384.721 96.3885 421.57 92.0451 397.8C88.4153 377.934 150.268 317.485 168.886 329.949C168.496 327.932 156.662 291.562 155.502 291.394C157.125 287.307 154.863 287.268 154.771 285.174C154.419 277.086 156.299 268.69 159.961 260.049C162.361 253.373 162.403 247.637 160.077 243.012C158.075 239.211 154.713 236.305 150.662 234.875L138.462 220.141C135.284 216.306 130.597 208.031 125.617 208.062L98.8839 207.107C98.1199 206.648 88.7329 214.72 79.5929 218.681C69.6798 222.981 71.7249 234.717 71.7498 234.867L71.7728 235.007L71.8819 235.107L86.4528 277.995L99.6179 290.333C98.9509 292.267 99.1179 293.719 100.367 294.552C98.5739 295.878 90.5978 335.559 91.8858 336.949L91.8858 337.949Z" fill="#804A6A"/>
<path d="M229.25 253.07C227.262 253.863 225.493 255.121 224.091 256.738L202.921 263.995L206.669 273.967L227.74 265.532C229.875 265.681 232.015 265.317 233.981 264.47C238.928 262.417 241.881 258.201 240.573 255.053C239.265 251.905 234.197 251.017 229.25 253.07Z" fill="#FFB6B6"/>
<path d="M116.321 221.067L164.616 286.257L221.227 270.667L218.766 255.899L175.658 264.064L151.609 227.092C143.756 211.912 128.278 208.855 116.321 221.066V221.067Z" fill="#804A6A"/>
<path d="M463.186 549.787H441.147C437.298 549.787 434.167 546.655 434.167 542.806C429.989 531.455 429.462 521.273 434.167 512.767C434.167 508.919 437.298 505.787 441.147 505.787C447.664 501.06 455.262 502.495 463.186 505.787C467.035 505.787 470.167 508.919 470.167 512.767C467.492 522.391 467.686 532.433 470.167 542.806C470.167 546.655 467.035 549.787 463.186 549.787Z" fill="#804A6A"/>
<path d="M461.055 519.156H443.255C442.641 519.156 442.143 518.658 442.143 518.043C442.143 517.429 442.641 516.931 443.255 516.931H461.055C461.669 516.931 462.167 517.429 462.167 518.043C462.167 518.658 461.669 519.156 461.055 519.156Z" fill="white"/>
<path d="M461.055 528.054H443.255C442.641 528.054 442.143 527.556 442.143 526.941C442.143 526.327 442.641 525.829 443.255 525.829H461.055C461.669 525.829 462.167 526.327 462.167 526.941C462.167 527.556 461.669 528.054 461.055 528.054Z" fill="white"/>
<path d="M461.055 536.953H443.255C442.641 536.953 442.143 536.455 442.143 535.84C442.143 535.226 442.641 534.728 443.255 534.728H461.055C461.669 534.728 462.167 535.226 462.167 535.84C462.167 536.455 461.669 536.953 461.055 536.953Z" fill="white"/>
<path d="M851.034 590.23H0V591.913H851.034V590.23Z" fill="#E6E6E6"/>
<path d="M664.204 365.547C664.927 372.533 669.118 377.824 673.563 377.363C678.008 376.903 681.026 370.866 680.303 363.879C680.052 361.083 679.136 358.388 677.63 356.019L674.194 326.449L660.351 328.357L665.207 357.299C664.219 359.926 663.873 362.752 664.201 365.54L664.204 365.547Z" fill="#FFB6B6"/>
<path d="M684.574 245.703L690.31 195.311C690.31 195.311 661.697 192.857 659.621 205.692C657.544 218.526 652.788 275.277 652.788 275.277L660.155 350.997L678.542 349.933L676.264 280.458L684.574 245.703Z" fill="#2F2E41"/>
<path d="M131.845 201.557L93.186 205.077L92.0452 164.897L134.162 163.701L131.845 201.557Z" fill="#2F2E41"/>
<path d="M112.296 196.164C123.501 196.164 132.585 187.08 132.585 175.875C132.585 164.67 123.501 155.587 112.296 155.587C101.091 155.587 92.0079 164.67 92.0079 175.875C92.0079 187.08 101.091 196.164 112.296 196.164Z" fill="#FFB6B6"/>
<path d="M128.617 156.107C128.474 151.073 122.21 150.528 117.329 149.285L112.904 146.988C108.56 145.883 103.951 146.66 100.21 149.13L88.409 156.279C83.1102 159.778 82.2685 165.434 80.1137 171.407L76.2137 180.151C74.0925 186.031 76.8955 193.822 79.0398 199.694L79.9383 202.154L78.5333 210.207L103.126 209.058L105.312 196.627L101.114 191.908C99.6246 190.234 99.5038 187.748 100.824 185.937C105.573 179.423 104.692 170.294 104.692 170.294L110.702 173.573C114.651 174.111 118.169 174.052 121.266 173.405C124.671 172.694 127.564 171.271 129.956 169.15L132.099 176.356C132.651 185.326 130.974 187.706 122.98 196.479L136.999 205.281L136.481 200.518C135.247 189.188 139.008 180.253 138.48 171.031C138.116 164.655 134.324 158.974 128.617 156.107Z" fill="#2F2E41"/>
<path d="M131.975 327.18C129.994 326.369 127.848 326.045 125.716 326.233L105.449 316.741L101.215 326.517L122.229 335.093C123.661 336.684 125.453 337.909 127.455 338.666C132.439 340.627 137.493 339.647 138.739 336.474C139.986 333.302 136.959 329.141 131.975 327.18Z" fill="#FFB6B6"/>
<path d="M73.0025 225.694L62.4337 306.133L113.977 334.259L122.47 321.929L85.7957 297.846L94.1924 254.547C99.0934 238.174 90.087 225.22 73.0032 225.693L73.0025 225.694Z" fill="#804A6A"/>
</g>
<defs>
<clipPath id="clip0_0_1">
<rect width="851.034" height="593.126" fill="white"/>
</clipPath>
</defs>
</svg>
