<svg width="884" height="605" viewBox="0 0 884 605" fill="none" xmlns="http://www.w3.org/2000/svg">
<rect width="884" height="605" fill="#F5F5F5"/>
<g clip-path="url(#clip0_0_1)">
<path d="M758.298 252.276C770.472 265.044 784.055 267.082 799.047 258.388C792.756 248.307 791.258 237.341 792.934 225.789H763.731C765.025 235.94 764.677 245.392 758.298 252.276Z" fill="#FFB8B8"/>
<path d="M806.517 586.416L822.138 578.267L828.929 492.015V446.512L792.934 445.833L803.121 491.336L806.517 586.416Z" fill="#FFB8B8"/>
<path d="M761.238 586.416L745.618 578.267L738.827 492.015V446.512L774.821 445.833L764.634 491.336L761.238 586.416Z" fill="#FFB8B8"/>
<path d="M737.244 456.02L775.276 452.624L781.389 417.988L788.859 451.945L830.287 449.229C831.192 432.727 828.893 415.743 823.496 398.293L732.49 396.255L737.244 456.02Z" fill="#2F2E41"/>
<path d="M697.714 325.941L651.965 290.713C651.491 290.347 650.969 290.047 650.413 289.822L643.764 287.116C638.423 284.943 628.251 277.716 633.212 270.274C637.212 264.274 652.523 275.022 654.407 279.004C655.002 280.258 655.978 281.29 657.196 281.955L666.493 287.05C666.719 287.174 666.952 287.284 667.191 287.381L702.587 301.728C703.569 302.126 704.63 302.284 705.685 302.188C706.739 302.093 707.756 301.748 708.65 301.181L715.067 297.112C715.98 296.533 717.021 296.185 718.098 296.099C719.176 296.012 720.259 296.19 721.252 296.616C722.246 297.042 723.121 297.704 723.801 298.544C724.482 299.384 724.947 300.378 725.157 301.438L727.278 312.142C727.584 313.684 727.334 315.283 726.573 316.658C725.812 318.032 724.589 319.093 723.121 319.653L704.144 326.887C703.081 327.292 701.931 327.418 700.806 327.252C699.68 327.087 698.616 326.635 697.714 325.941Z" fill="#FFB8B8"/>
<path d="M706.212 300.274C718.878 296.877 717.548 314.573 727.212 323.274L746.212 308.274L735.207 254.993C732.254 255.836 729.538 257.355 727.273 259.429C725.009 261.503 723.257 264.075 722.157 266.942L706.212 300.274Z" fill="#7F496B"/>
<path d="M729.774 399.651H825.533C810.036 357.887 811.544 314.934 824.74 271.163C824.962 270.436 824.923 269.655 824.63 268.954C824.337 268.253 823.809 267.676 823.136 267.323L795.651 252.955C784.861 259.976 773.266 257.818 761.014 248.201L731.132 256.351C739.267 305.208 739.498 353.061 729.774 399.651Z" fill="#7F496B"/>
<path d="M753.718 602.367L713.811 604.059C712.074 604.133 710.37 603.561 709.029 602.454C707.687 601.347 706.803 599.783 706.545 598.063C706.286 596.326 706.684 594.554 707.663 593.095C708.641 591.637 710.13 590.596 711.836 590.178L718.604 588.519L745.208 573.099C749.15 577.18 754.577 580.631 761.212 583.57L761.29 594.411C761.304 596.46 760.523 598.435 759.111 599.919C757.698 601.403 755.765 602.281 753.718 602.367Z" fill="#2F2E41"/>
<path d="M882.877 604.198H0.320984V602.017H883.272L882.877 604.198Z" fill="#3F3D56"/>
<path d="M813.706 601.761L853.613 603.453C855.35 603.527 857.054 602.955 858.395 601.848C859.737 600.741 860.621 599.177 860.878 597.457C861.138 595.72 860.74 593.948 859.761 592.489C858.783 591.031 857.294 589.99 855.588 589.572L848.819 587.913L822.216 572.493C818.274 576.574 812.847 580.025 806.212 582.964L806.134 593.806C806.12 595.854 806.901 597.829 808.313 599.313C809.726 600.797 811.659 601.675 813.706 601.761Z" fill="#2F2E41"/>
<path d="M775.276 238.014C787.279 238.014 797.009 228.284 797.009 216.281C797.009 204.279 787.279 194.548 775.276 194.548C763.274 194.548 753.544 204.279 753.544 216.281C753.544 228.284 763.274 238.014 775.276 238.014Z" fill="#FFB8B8"/>
<path d="M809.234 392.859L802.054 406.82C801.42 408.052 801.055 409.404 800.981 410.788C800.907 412.171 801.127 413.554 801.626 414.847C802.125 416.139 802.892 417.311 803.876 418.286C804.861 419.261 806.04 420.016 807.337 420.503C808.71 421.018 810.181 421.218 811.642 421.09C813.102 420.962 814.516 420.509 815.778 419.763C817.041 419.017 818.12 417.998 818.937 416.781C819.754 415.563 820.288 414.178 820.499 412.727L823.496 392.18L834.362 340.565L833.683 314.758H811.95C819.363 333.953 815.686 362.265 809.234 392.859Z" fill="#FFB8B8"/>
<path d="M808.555 317.474H837.758L833.519 285.447C832.944 281.103 831.291 276.973 828.709 273.433C826.128 269.893 822.701 267.055 818.742 265.18L808.555 317.474Z" fill="#7F496B"/>
<path d="M798.381 204.311C798.815 201.407 798.633 198.445 797.846 195.617C797.059 192.789 795.685 190.159 793.813 187.898C790.106 183.51 783.89 179.919 773.579 181.613C751.082 185.309 744.594 204.038 746.798 208.748C749.003 213.458 755.758 224.376 755.758 224.376C755.758 224.376 750.8 213.568 756.181 211.368C761.563 209.168 782.389 200.502 789.658 204.406C791.715 205.439 793.462 206.999 794.721 208.927C795.98 210.855 796.705 213.082 796.823 215.381L798.381 204.311Z" fill="#2F2E41"/>
<path d="M426.41 113.863L417.672 118.296C407.607 98.4789 394.273 80.4998 378.231 65.1152C299.45 -10.6227 173.739 -8.14657 98.0014 70.635C22.2635 149.417 24.7397 275.127 103.521 350.865C118.516 365.309 135.693 377.298 154.422 386.392L150.148 395.208C120.462 380.794 94.6317 359.523 74.7917 333.152C54.9517 306.781 41.6713 276.068 36.0478 243.551C30.4242 211.033 32.619 177.643 42.4507 146.142C52.2824 114.64 69.4689 85.9293 92.59 62.3827C115.711 38.836 144.103 21.129 175.421 10.7246C206.738 0.320139 240.082 -2.483 272.697 2.54673C305.312 7.57647 336.262 20.2947 362.99 39.6506C389.718 59.0065 411.456 84.4445 426.41 113.863Z" fill="#E6E6E6"/>
<path d="M130.792 296.15C117.94 309.519 110.925 327.446 111.29 345.987C111.655 364.528 119.371 382.165 132.74 395.018C146.109 407.87 164.036 414.885 182.577 414.52C201.118 414.155 218.755 406.439 231.607 393.07L243.645 380.549L142.83 283.628L130.792 296.15Z" fill="#E6E6E6"/>
<path d="M136.075 276.517C133.215 279.499 131.654 283.495 131.735 287.627C131.816 291.759 133.534 295.69 136.51 298.557L228.977 387.452C231.957 390.317 235.954 391.881 240.087 391.8C244.22 391.719 248.152 389.998 251.017 387.018C253.883 384.038 255.447 380.041 255.365 375.908C255.284 371.775 253.564 367.843 250.583 364.978L158.116 276.083C155.133 273.222 151.138 271.661 147.006 271.742C142.874 271.824 138.943 273.541 136.075 276.517Z" fill="#535461"/>
<path d="M413.41 203.962L425.448 191.44C438.3 178.071 445.316 160.144 444.95 141.603C444.585 123.062 436.869 105.425 423.5 92.5723C416.881 86.2085 409.073 81.2107 400.522 77.8645C391.97 74.5183 382.844 72.8891 373.663 73.0699C355.122 73.4351 337.485 81.1509 324.633 94.5198L312.595 107.041L413.41 203.962Z" fill="#E6E6E6"/>
<path d="M305.223 100.572C302.362 103.554 300.801 107.55 300.882 111.682C300.964 115.814 302.681 119.745 305.657 122.612L398.124 211.507C401.105 214.369 405.101 215.93 409.232 215.847C413.364 215.765 417.293 214.045 420.157 211.066C423.021 208.087 424.585 204.092 424.505 199.961C424.425 195.829 422.708 191.899 419.731 189.033L327.263 100.138C324.281 97.2769 320.285 95.716 316.153 95.7974C312.021 95.8788 308.09 97.5959 305.223 100.572Z" fill="#535461"/>
<path d="M344.229 306.006V298.784C344.229 298.784 375.746 281.055 401.354 298.784V305.35L344.229 306.006Z" fill="#535461"/>
<path d="M631.165 306.006V298.784C631.165 298.784 662.682 281.055 688.289 298.784V305.35L631.165 306.006Z" fill="#535461"/>
<path d="M438.78 305.35H407.92C407.92 305.35 400.041 296.157 373.776 296.814C347.512 297.471 342.259 305.35 342.259 305.35C342.259 305.35 316.324 322.75 310.414 344.418C310.414 344.418 278.569 439.953 277.912 514.806C277.256 589.659 306.146 600.165 321.248 602.134C336.35 604.104 363.271 601.478 389.535 535.161L400.697 496.421C400.697 496.421 402.667 473.44 426.305 487.885C449.942 502.331 470.954 480.006 470.954 480.006H559.595C559.595 480.006 589.142 498.391 616.063 483.946C616.063 483.946 626.569 470.157 636.418 516.776C636.418 516.776 666.621 612.64 713.24 602.791C759.859 592.942 754.606 512.836 754.606 512.836C754.606 512.836 748.369 390.38 722.761 347.044C722.761 347.044 698.138 302.067 681.723 300.097C681.723 300.097 646.267 293.531 632.478 299.44L624.599 306.006L438.78 305.35Z" fill="#E6E6E6"/>
<path d="M367.21 426.821C398.759 426.821 424.335 401.246 424.335 369.697C424.335 338.148 398.759 312.572 367.21 312.572C335.661 312.572 310.086 338.148 310.086 369.697C310.086 401.246 335.661 426.821 367.21 426.821Z" fill="#535461"/>
<path d="M665.308 426.821C696.857 426.821 722.433 401.246 722.433 369.697C722.433 338.148 696.857 312.572 665.308 312.572C633.759 312.572 608.184 338.148 608.184 369.697C608.184 401.246 633.759 426.821 665.308 426.821Z" fill="#535461"/>
<path d="M377.164 356.959L369.548 363.696C368.903 364.263 368.073 364.577 367.214 364.577C366.354 364.577 365.524 364.263 364.879 363.696L357.25 356.959C356.877 356.63 356.577 356.226 356.371 355.773C356.165 355.321 356.057 354.83 356.055 354.332V335.796C356.056 334.861 356.429 333.964 357.092 333.303C357.754 332.642 358.651 332.27 359.587 332.27H374.853C375.788 332.269 376.686 332.639 377.348 333.299C378.011 333.959 378.384 334.855 378.386 335.79V354.319C378.382 354.821 378.271 355.316 378.06 355.771C377.849 356.226 377.544 356.631 377.164 356.959Z" fill="#E6E6E6"/>
<path d="M377.164 382.428L369.548 375.698C368.903 375.13 368.073 374.817 367.214 374.817C366.354 374.817 365.524 375.13 364.879 375.698L357.25 382.435C356.877 382.764 356.577 383.168 356.371 383.62C356.165 384.073 356.057 384.564 356.055 385.061V403.578C356.053 404.513 356.423 405.41 357.083 406.073C357.743 406.735 358.639 407.108 359.574 407.11H374.853C375.788 407.112 376.686 406.742 377.348 406.082C378.011 405.422 378.384 404.526 378.386 403.591V385.068C378.382 384.566 378.271 384.072 378.06 383.616C377.849 383.161 377.544 382.756 377.164 382.428Z" fill="#E6E6E6"/>
<path d="M354.479 379.664L361.216 372.034C361.783 371.389 362.097 370.559 362.097 369.7C362.097 368.841 361.783 368.011 361.216 367.366L354.479 359.736C354.15 359.363 353.746 359.064 353.293 358.858C352.841 358.652 352.35 358.544 351.852 358.541H333.336C332.4 358.543 331.504 358.916 330.843 359.578C330.181 360.24 329.81 361.138 329.81 362.074V377.34C329.808 378.275 330.178 379.172 330.838 379.835C331.498 380.497 332.394 380.87 333.33 380.872H351.859C352.356 380.867 352.847 380.757 353.298 380.548C353.75 380.34 354.152 380.039 354.479 379.664Z" fill="#E6E6E6"/>
<path d="M379.948 379.664L373.225 372.028C372.656 371.383 372.342 370.553 372.342 369.694C372.342 368.834 372.656 368.004 373.225 367.359L379.962 359.73C380.29 359.357 380.694 359.057 381.147 358.851C381.6 358.645 382.091 358.537 382.588 358.535H401.104C402.039 358.533 402.937 358.903 403.599 359.563C404.262 360.223 404.635 361.119 404.637 362.054V377.333C404.638 378.268 404.269 379.166 403.609 379.828C402.949 380.491 402.052 380.864 401.117 380.866H382.595C382.093 380.865 381.598 380.757 381.142 380.55C380.686 380.343 380.279 380.041 379.948 379.664Z" fill="#E6E6E6"/>
<path d="M444.69 473.44C467.535 473.44 486.056 454.92 486.056 432.074C486.056 409.228 467.535 390.708 444.69 390.708C421.844 390.708 403.324 409.228 403.324 432.074C403.324 454.92 421.844 473.44 444.69 473.44Z" fill="#535461"/>
<path d="M587.829 473.44C610.675 473.44 629.195 454.92 629.195 432.074C629.195 409.228 610.675 390.708 587.829 390.708C564.983 390.708 546.463 409.228 546.463 432.074C546.463 454.92 564.983 473.44 587.829 473.44Z" fill="#535461"/>
<path d="M444.69 459.651C459.92 459.651 472.267 447.305 472.267 432.074C472.267 416.844 459.92 404.497 444.69 404.497C429.459 404.497 417.112 416.844 417.112 432.074C417.112 447.305 429.459 459.651 444.69 459.651Z" fill="#E6E6E6"/>
<path d="M444.69 451.116C440.924 451.116 437.242 449.999 434.111 447.906C430.979 445.814 428.539 442.84 427.098 439.361C425.656 435.882 425.279 432.053 426.014 428.359C426.749 424.666 428.562 421.273 431.225 418.61C433.888 415.947 437.281 414.133 440.975 413.398C444.668 412.664 448.497 413.041 451.977 414.482C455.456 415.923 458.43 418.364 460.522 421.495C462.614 424.627 463.731 428.308 463.731 432.074C463.725 437.122 461.717 441.962 458.148 445.532C454.578 449.102 449.738 451.11 444.69 451.116ZM444.69 414.346C441.183 414.346 437.756 415.386 434.84 417.334C431.925 419.282 429.653 422.05 428.311 425.29C426.969 428.529 426.618 432.094 427.302 435.533C427.986 438.972 429.674 442.131 432.154 444.61C434.633 447.089 437.792 448.778 441.231 449.462C444.67 450.146 448.235 449.795 451.474 448.453C454.713 447.111 457.482 444.839 459.43 441.923C461.378 439.008 462.418 435.58 462.418 432.074C462.413 427.374 460.543 422.868 457.22 419.544C453.896 416.221 449.39 414.351 444.69 414.346Z" fill="#535461"/>
<path d="M587.829 459.651C603.06 459.651 615.406 447.305 615.406 432.074C615.406 416.844 603.06 404.497 587.829 404.497C572.598 404.497 560.252 416.844 560.252 432.074C560.252 447.305 572.598 459.651 587.829 459.651Z" fill="#E6E6E6"/>
<path d="M587.829 451.116C584.063 451.116 580.382 449.999 577.25 447.906C574.119 445.814 571.678 442.84 570.237 439.361C568.796 435.882 568.419 432.053 569.154 428.359C569.888 424.666 571.702 421.273 574.365 418.61C577.028 415.947 580.421 414.133 584.114 413.398C587.808 412.664 591.637 413.041 595.116 414.482C598.595 415.923 601.569 418.364 603.662 421.495C605.754 424.627 606.871 428.308 606.871 432.074C606.865 437.122 604.857 441.962 601.287 445.532C597.717 449.102 592.877 451.11 587.829 451.116ZM587.829 414.346C584.323 414.346 580.895 415.386 577.98 417.334C575.064 419.282 572.792 422.05 571.45 425.29C570.109 428.529 569.757 432.094 570.442 435.533C571.126 438.972 572.814 442.131 575.293 444.61C577.773 447.089 580.932 448.778 584.371 449.462C587.809 450.146 591.374 449.795 594.613 448.453C597.853 447.111 600.622 444.839 602.57 441.923C604.518 439.008 605.557 435.58 605.557 432.074C605.552 427.374 603.683 422.868 600.359 419.544C597.036 416.221 592.529 414.351 587.829 414.346Z" fill="#535461"/>
<path d="M517.573 448.489C524.1 448.489 529.391 443.198 529.391 436.67C529.391 430.143 524.1 424.852 517.573 424.852C511.045 424.852 505.754 430.143 505.754 436.67C505.754 443.198 511.045 448.489 517.573 448.489Z" fill="#535461"/>
<path d="M499.509 399.802C500.934 399.802 502.09 398.647 502.09 397.222C502.09 395.797 500.934 394.641 499.509 394.641C498.084 394.641 496.929 395.797 496.929 397.222C496.929 398.647 498.084 399.802 499.509 399.802Z" fill="#535461"/>
<path d="M509.175 399.802C510.6 399.802 511.755 398.647 511.755 397.222C511.755 395.797 510.6 394.641 509.175 394.641C507.749 394.641 506.594 395.797 506.594 397.222C506.594 398.647 507.749 399.802 509.175 399.802Z" fill="#535461"/>
<path d="M507.888 412.048C509.313 412.048 510.468 410.892 510.468 409.467C510.468 408.042 509.313 406.887 507.888 406.887C506.462 406.887 505.307 408.042 505.307 409.467C505.307 410.892 506.462 412.048 507.888 412.048Z" fill="#535461"/>
<path d="M516.916 412.376C518.366 412.376 519.542 411.2 519.542 409.75C519.542 408.299 518.366 407.123 516.916 407.123C515.465 407.123 514.289 408.299 514.289 409.75C514.289 411.2 515.465 412.376 516.916 412.376Z" fill="#535461"/>
<path d="M525.931 412.048C527.356 412.048 528.512 410.892 528.512 409.467C528.512 408.042 527.356 406.887 525.931 406.887C524.506 406.887 523.351 408.042 523.351 409.467C523.351 410.892 524.506 412.048 525.931 412.048Z" fill="#535461"/>
<path d="M504.02 406.25C505.445 406.25 506.601 405.095 506.601 403.67C506.601 402.244 505.445 401.089 504.02 401.089C502.595 401.089 501.44 402.244 501.44 403.67C501.44 405.095 502.595 406.25 504.02 406.25Z" fill="#535461"/>
<path d="M512.32 406.467C513.77 406.467 514.946 405.291 514.946 403.84C514.946 402.39 513.77 401.214 512.32 401.214C510.869 401.214 509.693 402.39 509.693 403.84C509.693 405.291 510.869 406.467 512.32 406.467Z" fill="#535461"/>
<path d="M520.856 406.467C522.306 406.467 523.482 405.291 523.482 403.84C523.482 402.39 522.306 401.214 520.856 401.214C519.405 401.214 518.229 402.39 518.229 403.84C518.229 405.291 519.405 406.467 520.856 406.467Z" fill="#535461"/>
<path d="M529.798 406.25C531.224 406.25 532.379 405.095 532.379 403.67C532.379 402.244 531.224 401.089 529.798 401.089C528.373 401.089 527.218 402.244 527.218 403.67C527.218 405.095 528.373 406.25 529.798 406.25Z" fill="#535461"/>
<path d="M516.916 399.901C518.366 399.901 519.542 398.725 519.542 397.274C519.542 395.824 518.366 394.648 516.916 394.648C515.465 394.648 514.289 395.824 514.289 397.274C514.289 398.725 515.465 399.901 516.916 399.901Z" fill="#535461"/>
<path d="M526.108 399.901C527.559 399.901 528.735 398.725 528.735 397.274C528.735 395.824 527.559 394.648 526.108 394.648C524.658 394.648 523.482 395.824 523.482 397.274C523.482 398.725 524.658 399.901 526.108 399.901Z" fill="#535461"/>
<path d="M533.666 399.802C535.091 399.802 536.246 398.647 536.246 397.222C536.246 395.797 535.091 394.641 533.666 394.641C532.241 394.641 531.085 395.797 531.085 397.222C531.085 398.647 532.241 399.802 533.666 399.802Z" fill="#535461"/>
<path d="M419.41 310.946C418.196 310.947 417.031 311.43 416.172 312.289C415.313 313.148 414.83 314.312 414.829 315.527V329.316C414.83 330.531 415.313 331.695 416.172 332.554C417.031 333.413 418.196 333.896 419.41 333.897H422.693C423.908 333.896 425.072 333.413 425.931 332.554C426.79 331.695 427.273 330.531 427.274 329.316V315.527C427.273 314.312 426.79 313.148 425.931 312.289C425.072 311.43 423.908 310.947 422.693 310.946H419.41Z" fill="#535461"/>
<path d="M611.138 310.946C609.924 310.947 608.759 311.43 607.9 312.289C607.041 313.148 606.558 314.312 606.557 315.527V329.316C606.558 330.531 607.041 331.695 607.9 332.554C608.759 333.413 609.924 333.896 611.138 333.897H614.421C615.636 333.896 616.8 333.413 617.659 332.554C618.518 331.695 619.001 330.531 619.002 329.316V315.527C619.001 314.312 618.518 313.148 617.659 312.289C616.8 311.43 615.636 310.947 614.421 310.946H611.138Z" fill="#535461"/>
<path d="M665.965 350.655C674.668 350.655 681.723 343.6 681.723 334.897C681.723 326.194 674.668 319.138 665.965 319.138C657.262 319.138 650.206 326.194 650.206 334.897C650.206 343.6 657.262 350.655 665.965 350.655Z" fill="#E6E6E6"/>
<path d="M632.478 384.142C641.181 384.142 648.237 377.087 648.237 368.384C648.237 359.68 641.181 352.625 632.478 352.625C623.775 352.625 616.72 359.68 616.72 368.384C616.72 377.087 623.775 384.142 632.478 384.142Z" fill="#E6E6E6"/>
<path d="M700.765 382.172C709.468 382.172 716.523 375.117 716.523 366.414C716.523 357.711 709.468 350.655 700.765 350.655C692.062 350.655 685.006 357.711 685.006 366.414C685.006 375.117 692.062 382.172 700.765 382.172Z" fill="#E6E6E6"/>
<path d="M668.591 416.972C677.294 416.972 684.35 409.917 684.35 401.214C684.35 392.511 677.294 385.455 668.591 385.455C659.888 385.455 652.833 392.511 652.833 401.214C652.833 409.917 659.888 416.972 668.591 416.972Z" fill="#E6E6E6"/>
<path d="M449.121 301.754C445.6 301.758 442.225 303.158 439.735 305.648C437.245 308.138 435.844 311.514 435.84 315.035V373.8C435.844 377.322 437.245 380.697 439.735 383.187C442.224 385.677 445.6 387.078 449.121 387.082H584.053C587.574 387.078 590.95 385.677 593.44 383.187C595.93 380.697 597.33 377.322 597.334 373.8V315.035C597.33 311.514 595.93 308.138 593.44 305.648C590.95 303.158 587.574 301.758 584.053 301.754H449.121Z" fill="#535461"/>
<path d="M676.671 342.119H655.301L665.617 324.434L676.671 342.119ZM657.588 340.806H674.301L665.656 326.974L657.588 340.806Z" fill="#535461"/>
<path d="M641.342 376.263H623.614V360.504H641.342V376.263ZM624.927 374.95H640.029V361.818H624.927V374.95Z" fill="#535461"/>
<path d="M700.765 376.263C698.817 376.263 696.913 375.685 695.293 374.603C693.673 373.521 692.411 371.983 691.666 370.183C690.92 368.383 690.725 366.403 691.105 364.492C691.485 362.582 692.423 360.827 693.801 359.45C695.178 358.072 696.933 357.134 698.843 356.754C700.754 356.374 702.734 356.569 704.534 357.314C706.334 358.06 707.872 359.322 708.954 360.942C710.036 362.562 710.614 364.466 710.614 366.414C710.611 369.025 709.572 371.528 707.726 373.375C705.88 375.221 703.376 376.26 700.765 376.263ZM700.765 357.878C699.077 357.878 697.426 358.378 696.023 359.316C694.619 360.254 693.525 361.587 692.879 363.147C692.233 364.707 692.064 366.423 692.393 368.079C692.722 369.735 693.535 371.256 694.729 372.45C695.923 373.643 697.444 374.456 699.1 374.786C700.755 375.115 702.472 374.946 704.031 374.3C705.591 373.654 706.924 372.56 707.862 371.156C708.8 369.752 709.301 368.102 709.301 366.414C709.298 364.151 708.398 361.981 706.798 360.381C705.198 358.781 703.028 357.88 700.765 357.878Z" fill="#535461"/>
<path d="M661.505 393.363L660.576 394.291L675.35 409.065L676.278 408.136L661.505 393.363Z" fill="#535461"/>
<path d="M675.687 393.351L660.587 407.799L661.495 408.748L676.595 394.3L675.687 393.351Z" fill="#535461"/>
<path d="M139.571 151.714C103.721 161.598 64.4631 169.038 50.3964 157.496C58.098 144.674 62.5401 132.037 62.917 119.629C63.0019 113.952 65.3012 108.532 69.3248 104.526C71.9885 101.953 75.2037 100.02 78.7261 98.8758C82.2485 97.7312 85.9854 97.4045 89.653 97.9205L98.9571 99.2261C99.2703 99.2701 99.5819 99.3199 99.8918 99.3758C104.358 100.222 108.446 102.445 111.584 105.734C114.722 109.022 116.751 113.211 117.387 117.711C119.347 131.166 125.939 142.813 139.571 151.714Z" fill="#2F2E41"/>
<path d="M174.154 279.359L188.091 282.232C189.155 282.452 190.158 282.906 191.025 283.561C191.892 284.216 192.603 285.056 193.105 286.02C193.607 286.984 193.888 288.048 193.928 289.134C193.968 290.22 193.765 291.302 193.335 292.3C192.919 293.264 192.301 294.128 191.521 294.832C190.742 295.537 189.821 296.065 188.819 296.382C187.818 296.698 186.76 296.796 185.717 296.667C184.675 296.539 183.672 296.187 182.778 295.637L161.458 282.525L125.247 197.399L144.003 191.974L174.154 279.359Z" fill="#A0616A"/>
<path d="M74.869 391.06L64.316 394.129L56.328 377.632L64.451 373.399L74.869 391.06Z" fill="#A0616A"/>
<path d="M69.507 461.743L56.559 458.315L58.586 436.07L69.729 436.756L69.507 461.743Z" fill="#A0616A"/>
<path d="M70.8573 375.639L57.1436 384.664L4.39913 325.003C3.25505 323.709 2.41021 322.179 1.92471 320.521C1.43921 318.863 1.32499 317.119 1.59016 315.412C1.85533 313.705 2.49337 312.078 3.45892 310.646C4.42446 309.213 5.69376 308.012 7.17654 307.126L72.883 267.864L82.9468 296.774L48.7332 328.881L70.8573 375.639Z" fill="#2F2E41"/>
<path d="M82.4063 406.868C82.3719 406.913 82.3374 406.958 82.3029 407.002C81.4264 412.134 79.8871 416.815 76.4494 420.204C75.4302 422.502 73.6001 424.345 71.3086 425.38C69.0171 426.415 66.4247 426.57 64.0264 425.814C61.7645 425.102 59.8204 423.626 58.5265 421.639C57.2326 419.652 56.6692 417.277 56.9329 414.92L59.4955 392.015C65.6426 390.602 70.3309 387.106 72.7039 380.305L78.6781 384.374C80.4461 385.569 81.9521 387.111 83.1042 388.907C84.2564 390.703 85.0305 392.715 85.3794 394.82C85.7283 396.924 85.6446 399.078 85.1334 401.15C84.6222 403.222 83.6943 405.167 82.4063 406.868Z" fill="#2F2E41"/>
<path d="M88.9075 146.809C100.565 146.809 110.015 137.359 110.015 125.702C110.015 114.044 100.565 104.594 88.9075 104.594C77.2502 104.594 67.8 114.044 67.8 125.702C67.8 137.359 77.2502 146.809 88.9075 146.809Z" fill="#A0616A"/>
<path d="M107.187 159.444L73.9108 187.003L71.3192 175.659L77.1273 166.805C78.7391 158.119 77.6985 148.54 74.9287 138.38L96.6389 138.399C97.5762 146.61 100.773 153.773 107.187 159.444Z" fill="#A0616A"/>
<path d="M116.555 231.734L71.6325 245.418L68.1375 229.44C59.7188 218.137 56.0592 207.819 61.567 199.402L58.7953 186.731C66.7461 180.471 72.9984 174.066 76.4315 167.421L104.071 156.621L124.389 157.871L130.389 177.978L116.555 231.734Z" fill="#7F496B"/>
<path d="M148.47 194.222C138.894 194.121 129.522 196.992 121.647 202.441L124.389 157.871C127.173 158.243 129.812 159.333 132.046 161.034C134.281 162.735 136.034 164.988 137.133 167.572L148.47 194.222Z" fill="#7F496B"/>
<path d="M70.7168 442.08L56.4584 438.571L58.5571 317.418L77.7034 296.451L73.4175 269.871L70.6442 240.094L117.412 228.497C133.22 257.2 142.775 283.296 128.828 299.597L70.7168 442.08Z" fill="#2F2E41"/>
<path d="M67.4419 482.985C67.3779 483.011 67.3139 483.035 67.2498 483.06C63.1096 487.868 58.5607 491.788 52.8414 493.166C50.3328 494.925 47.2639 495.699 44.2209 495.34C41.1779 494.98 38.3739 493.512 36.3443 491.217C34.4302 489.052 33.3279 486.289 33.2257 483.401C33.1235 480.513 34.0279 477.679 35.7842 475.384L52.8547 453.079C60.1611 455.466 67.2532 454.763 74.0052 449.153L77.6857 457.156C78.7809 459.514 79.3841 462.071 79.4585 464.67C79.5329 467.27 79.0768 469.857 78.1182 472.274C77.1596 474.691 75.7185 476.887 73.883 478.729C72.0474 480.571 69.8558 482.019 67.4419 482.985Z" fill="#2F2E41"/>
<path d="M15.3559 293.931L2.84079 304.646C1.80225 305.535 1.00499 306.672 0.522922 307.952C0.0408579 309.231 -0.110412 310.612 0.0831329 311.965C0.276677 313.319 0.808776 314.601 1.6301 315.694C2.45142 316.787 3.53539 317.655 4.78153 318.218C6.65746 319.064 8.78493 319.167 10.7338 318.506C12.6827 317.844 14.3077 316.467 15.2802 314.653L24.3304 297.773L65.8341 222.034L50.2245 219.1L15.3559 293.931Z" fill="#A0616A"/>
<path d="M68.3349 224.161C60.2283 221.714 52.6349 220.273 46.7457 222.175C47.9802 206.899 50.5245 193.252 58.7953 186.731L70.5529 188.112L68.3349 224.161Z" fill="#7F496B"/>
<path d="M112.471 120.807L67.3258 118.029L67.8813 109C83.6405 98.3742 98.6889 99.3002 113.026 111.778L112.471 120.807Z" fill="#2F2E41"/>
</g>
<defs>
<clipPath id="clip0_0_1">
<rect width="883.272" height="604.198" fill="white"/>
</clipPath>
</defs>
</svg>
