<svg width="718" height="597" viewBox="0 0 718 597" fill="none" xmlns="http://www.w3.org/2000/svg">
<rect width="718" height="597" fill="#F5F5F5"/>
<g clip-path="url(#clip0_0_1)">
<path d="M472.126 0H263.583C231.148 0 204.855 26.2936 204.855 58.7284V535.272C204.855 567.706 231.148 594 263.583 594H472.126C504.561 594 530.855 567.706 530.855 535.272V58.7284C530.855 26.2936 504.561 0 472.126 0Z" fill="#3F3D56"/>
<path d="M525.355 58.7323V535.272C525.339 549.385 519.725 562.915 509.746 572.894C499.767 582.873 486.238 588.486 472.125 588.502H263.585C249.473 588.486 235.943 582.873 225.964 572.894C215.985 562.915 210.372 549.385 210.355 535.272V58.7323C210.372 44.6199 215.985 31.0901 225.964 21.1111C235.943 11.1321 249.473 5.51866 263.585 5.50232H290.855V14.9223C290.855 19.1869 292.55 23.2768 295.565 26.2923C298.581 29.3079 302.671 31.0021 306.935 31.0023H428.775C433.04 31.0021 437.13 29.3079 440.145 26.2923C443.161 23.2768 444.855 19.1869 444.855 14.9223V5.50232H472.125C486.238 5.51866 499.767 11.1321 509.746 21.1111C519.725 31.0901 525.339 44.6199 525.355 58.7323Z" fill="white"/>
<path d="M203.355 120.5C202.294 120.499 201.278 120.077 200.528 119.327C199.778 118.577 199.356 117.56 199.355 116.5V108.5C199.355 107.439 199.776 106.422 200.526 105.672C201.276 104.921 202.294 104.5 203.355 104.5C204.416 104.5 205.433 104.921 206.183 105.672C206.933 106.422 207.355 107.439 207.355 108.5V116.5C207.354 117.56 206.932 118.577 206.182 119.327C205.432 120.077 204.415 120.499 203.355 120.5Z" fill="#3F3D56"/>
<path d="M203.355 161.521C202.294 161.52 201.278 161.098 200.528 160.349C199.778 159.599 199.356 158.582 199.355 157.521V135.5C199.355 134.439 199.776 133.422 200.526 132.672C201.276 131.921 202.294 131.5 203.355 131.5C204.416 131.5 205.433 131.921 206.183 132.672C206.933 133.422 207.355 134.439 207.355 135.5V157.521C207.354 158.582 206.932 159.599 206.182 160.349C205.432 161.098 204.415 161.52 203.355 161.521Z" fill="#3F3D56"/>
<path d="M203.355 194.5C202.294 194.499 201.278 194.077 200.528 193.327C199.778 192.577 199.356 191.561 199.355 190.5V168.479C199.355 167.418 199.776 166.4 200.526 165.65C201.276 164.9 202.294 164.479 203.355 164.479C204.416 164.479 205.433 164.9 206.183 165.65C206.933 166.4 207.355 167.418 207.355 168.479V190.5C207.354 191.561 206.932 192.577 206.182 193.327C205.432 194.077 204.415 194.499 203.355 194.5Z" fill="#3F3D56"/>
<path d="M531.355 176.5C530.294 176.499 529.278 176.077 528.528 175.327C527.778 174.577 527.356 173.56 527.355 172.5V118.767C527.355 117.706 527.776 116.688 528.526 115.938C529.276 115.188 530.294 114.767 531.355 114.767C532.416 114.767 533.433 115.188 534.183 115.938C534.933 116.688 535.355 117.706 535.355 118.767V172.5C535.354 173.56 534.932 174.577 534.182 175.327C533.432 176.077 532.415 176.499 531.355 176.5Z" fill="#3F3D56"/>
<path d="M376.447 18.3458H345.447C344.784 18.3458 344.148 18.0824 343.68 17.6136C343.211 17.1447 342.947 16.5088 342.947 15.8458C342.947 15.1828 343.211 14.5469 343.68 14.078C344.148 13.6092 344.784 13.3458 345.447 13.3458H376.447C377.11 13.3458 377.746 13.6092 378.215 14.078C378.684 14.5469 378.947 15.1828 378.947 15.8458C378.947 16.5088 378.684 17.1447 378.215 17.6136C377.746 18.0824 377.11 18.3458 376.447 18.3458Z" fill="white"/>
<path d="M392.447 17.8458C393.552 17.8458 394.447 16.9504 394.447 15.8458C394.447 14.7412 393.552 13.8458 392.447 13.8458C391.343 13.8458 390.447 14.7412 390.447 15.8458C390.447 16.9504 391.343 17.8458 392.447 17.8458Z" fill="white"/>
<path d="M632.752 569.017C633.482 569.044 634.203 568.845 634.817 568.449C635.43 568.052 635.907 567.476 636.183 566.799C636.458 566.122 636.519 565.377 636.357 564.665C636.195 563.952 635.817 563.307 635.276 562.816C635.183 562.46 635.116 562.204 635.023 561.847C635.704 560.066 636.902 558.529 638.463 557.433C640.024 556.337 641.877 555.733 643.783 555.696C645.69 555.66 647.564 556.194 649.166 557.23C650.767 558.266 652.022 559.757 652.771 561.511C657.089 571.357 662.652 581.539 660.038 592.454C677.632 554.226 671.074 506.946 644.227 474.653C636.854 470.683 630.84 463.56 629.213 455.239C632.855 456.435 637.353 453.439 634.587 449.641C633.39 448.191 632.182 446.752 630.985 445.302C644.635 430.484 661.285 453.409 646.295 473.376C651.32 479.554 655.685 486.24 659.319 493.326C658.424 485.774 659.334 478.117 661.975 470.985C664.657 464.336 669.75 458.709 674.226 452.941C679.669 445.912 691.039 449.023 691.865 457.868C686.796 459.588 686.206 466.939 692.032 467.889C690.665 484.372 680.05 499.61 665.3 506.973C670.918 522.276 673.211 538.6 672.025 554.859C674.46 535.848 694.796 531.046 708.969 523.364C709.87 522.774 710.923 522.459 712 522.458C713.078 522.456 714.132 522.768 715.035 523.355C715.938 523.943 716.65 524.78 717.085 525.765C717.52 526.751 717.659 527.841 717.485 528.904C715.527 529.722 713.654 530.733 711.896 531.921C711.072 532.487 710.443 533.293 710.095 534.23C709.747 535.167 709.698 536.189 709.954 537.155C710.209 538.121 710.757 538.984 711.523 539.626C712.289 540.269 713.234 540.659 714.23 540.742C707.219 558.582 688.768 570.692 669.701 570.806C667.945 578.786 665.364 586.561 662 594.007L633.702 594.277C633.597 593.963 633.503 593.639 633.409 593.326C636.029 593.466 638.658 593.284 641.234 592.785C634.226 584.646 628.828 580.51 632.752 569.017Z" fill="#F2F2F2"/>
<path d="M84.9968 569.017C84.2665 569.044 83.5458 568.845 82.9321 568.449C82.3184 568.052 81.8416 567.476 81.5661 566.799C81.2907 566.122 81.2299 565.377 81.3921 564.665C81.5543 563.952 81.9316 563.307 82.4728 562.816C82.5661 562.46 82.633 562.204 82.7263 561.847C82.0446 560.066 80.8466 558.529 79.2857 557.433C77.7248 556.337 75.8722 555.733 73.9654 555.696C72.0586 555.66 70.1844 556.194 68.5831 557.23C66.9818 558.266 65.7264 559.757 64.9777 561.511C60.66 571.357 55.0963 581.539 57.7111 592.454C40.1171 554.226 46.6744 506.946 73.5214 474.653C80.895 470.683 86.9087 463.56 88.5359 455.239C84.8939 456.435 80.3959 453.439 83.1617 449.641C84.3588 448.191 85.5672 446.752 86.7641 445.302C73.114 430.484 56.4636 453.409 71.4536 473.376C66.429 479.554 62.0639 486.24 58.4297 493.326C59.3253 485.774 58.4151 478.117 55.774 470.985C53.0918 464.336 47.9993 458.709 43.5224 452.941C38.0794 445.912 26.7094 449.023 25.8837 457.868C30.9524 459.588 31.543 466.939 25.7173 467.889C27.0838 484.372 37.699 499.61 52.449 506.973C46.8304 522.276 44.5379 538.6 45.7242 554.859C43.2893 535.848 22.9529 531.046 8.77985 523.364C7.87875 522.774 6.82541 522.459 5.74831 522.458C4.67121 522.456 3.61691 522.768 2.71404 523.355C1.81116 523.943 1.09873 524.78 0.663654 525.765C0.228576 526.751 0.0896548 527.841 0.263843 528.904C2.22231 529.722 4.09466 530.733 5.85332 531.921C6.6773 532.487 7.30623 533.293 7.65389 534.23C8.00155 535.167 8.05093 536.189 7.79525 537.155C7.53957 538.121 6.99135 538.984 6.22574 539.626C5.46013 540.269 4.51461 540.659 3.51879 540.742C10.5299 558.582 28.9803 570.692 48.0473 570.806C49.8038 578.786 52.3848 586.561 55.7487 594.007L84.0471 594.277C84.1516 593.963 84.2459 593.639 84.3402 593.326C81.7193 593.466 79.0912 593.284 76.5144 592.785C83.5226 584.646 88.9219 580.511 84.9977 569.018L84.9968 569.017Z" fill="#F2F2F2"/>
<path d="M278.941 29.0731H251.941C250.615 29.0731 249.343 28.5463 248.405 27.6086C247.467 26.6709 246.941 25.3991 246.941 24.0731C246.941 22.747 247.467 21.4752 248.405 20.5375C249.343 19.5998 250.615 19.0731 251.941 19.0731H278.941C280.267 19.0731 281.539 19.5998 282.476 20.5375C283.414 21.4752 283.941 22.747 283.941 24.0731C283.941 25.3991 283.414 26.6709 282.476 27.6086C281.539 28.5463 280.267 29.0731 278.941 29.0731Z" fill="#E6E6E6"/>
<path d="M455.941 28.5731C458.426 28.5731 460.441 26.5583 460.441 24.0731C460.441 21.5878 458.426 19.5731 455.941 19.5731C453.455 19.5731 451.441 21.5878 451.441 24.0731C451.441 26.5583 453.455 28.5731 455.941 28.5731Z" fill="#E6E6E6"/>
<path d="M469.941 28.5731C472.426 28.5731 474.441 26.5583 474.441 24.0731C474.441 21.5878 472.426 19.5731 469.941 19.5731C467.455 19.5731 465.441 21.5878 465.441 24.0731C465.441 26.5583 467.455 28.5731 469.941 28.5731Z" fill="#E6E6E6"/>
<path d="M483.941 28.5731C486.426 28.5731 488.441 26.5583 488.441 24.0731C488.441 21.5878 486.426 19.5731 483.941 19.5731C481.455 19.5731 479.441 21.5878 479.441 24.0731C479.441 26.5583 481.455 28.5731 483.941 28.5731Z" fill="#E6E6E6"/>
<path d="M452.794 98.9571H283.094C279.807 98.9616 276.656 100.27 274.331 102.594C272.007 104.918 270.699 108.07 270.694 111.357V221.667C270.699 224.954 272.007 228.106 274.331 230.43C276.656 232.755 279.807 234.063 283.094 234.067H452.794C456.082 234.064 459.235 232.757 461.559 230.432C463.884 228.107 465.192 224.955 465.194 221.667V111.357C465.192 108.069 463.884 104.917 461.559 102.592C459.235 100.267 456.082 98.96 452.794 98.9571Z" fill="#F2F2F2"/>
<path d="M399.667 146.049C384.331 173.164 367.408 199.349 348.985 224.469H322.373C339.804 203.233 357.248 181.998 374.705 160.762C379.713 154.648 385.148 148.242 392.66 145.758L399.667 146.049Z" fill="#3F3D56"/>
<path d="M364.301 141.701C361.525 144.593 358.865 147.602 356.362 150.727C350.849 157.365 345.414 164.062 339.959 170.74C336.563 174.893 333.166 179.047 329.808 183.201C328.741 182.516 327.729 181.751 326.78 180.911C321.416 176.255 318.089 169.684 317.512 162.606C316.935 155.527 319.153 148.504 323.692 143.042C328.231 137.579 334.728 134.111 341.793 133.382C348.858 132.652 355.927 134.719 361.486 139.139C362.488 139.92 363.429 140.777 364.301 141.701Z" fill="#7F496B"/>
<path d="M465.194 138.547V142.577L463.394 141.917L438.064 132.657C429.814 129.647 421.584 126.207 413.064 124.037C405.652 121.917 397.78 122.018 390.424 124.327C383.867 126.753 377.868 130.477 372.784 135.277C370.534 137.357 368.354 139.487 366.244 141.697C365.554 142.427 364.864 143.157 364.184 143.887C362.144 146.107 360.174 148.377 358.304 150.727C352.794 157.367 347.354 164.067 341.904 170.737C338.504 174.897 335.104 179.047 331.744 183.197C320.524 196.927 309.371 210.684 298.284 224.467C296.791 224.45 295.305 224.262 293.854 223.907C305.164 209.857 316.528 195.844 327.944 181.867C328.204 181.547 328.464 181.227 328.724 180.907C330.064 179.237 331.434 177.557 332.794 175.887C338.484 168.917 344.178 161.954 349.874 154.997C354.014 149.937 358.124 144.857 362.584 140.057C362.854 139.747 363.134 139.447 363.424 139.137C363.854 138.677 364.284 138.227 364.724 137.757C374.414 127.747 386.504 118.897 400.984 118.657C409.504 118.527 417.734 121.227 425.654 124.077C434.184 127.167 442.684 130.307 451.204 133.427L465.194 138.547Z" fill="#3F3D56"/>
<path d="M469.185 477.618H266.526C263.239 477.614 260.087 476.307 257.763 473.982C255.438 471.658 254.131 468.506 254.127 465.219V437.906C254.131 434.619 255.438 431.467 257.763 429.143C260.087 426.818 263.239 425.511 266.526 425.507H469.185C472.472 425.511 475.623 426.818 477.948 429.143C480.272 431.467 481.58 434.619 481.584 437.906V465.219C481.58 468.506 480.272 471.658 477.948 473.982C475.623 476.307 472.472 477.614 469.185 477.618Z" fill="#F2F2F2"/>
<path d="M469.185 337.618H266.526C263.239 337.614 260.087 336.307 257.763 333.982C255.438 331.658 254.131 328.506 254.127 325.219V297.906C254.131 294.619 255.438 291.467 257.763 289.143C260.087 286.818 263.239 285.511 266.526 285.507H469.185C472.472 285.511 475.623 286.818 477.948 289.143C480.272 291.467 481.58 294.619 481.584 297.906V325.219C481.58 328.506 480.272 331.658 477.948 333.982C475.623 336.307 472.472 337.614 469.185 337.618Z" fill="#F2F2F2"/>
<path d="M469.185 407.618H266.526C263.239 407.614 260.087 406.307 257.763 403.982C255.438 401.658 254.131 398.506 254.127 395.219V367.906C254.131 364.619 255.438 361.467 257.763 359.143C260.087 356.818 263.239 355.511 266.526 355.507H469.185C472.472 355.511 475.623 356.818 477.948 359.143C480.272 361.467 481.58 364.619 481.584 367.906V395.219C481.58 398.506 480.272 401.658 477.948 403.982C475.623 406.307 472.472 407.614 469.185 407.618Z" fill="#F2F2F2"/>
<path d="M392.477 446.888H332.765C332.056 446.888 331.377 446.607 330.876 446.106C330.375 445.605 330.094 444.925 330.094 444.217C330.094 443.509 330.375 442.829 330.876 442.328C331.377 441.827 332.056 441.546 332.765 441.546H392.477C393.185 441.546 393.864 441.827 394.365 442.328C394.866 442.829 395.148 443.509 395.148 444.217C395.148 444.925 394.866 445.605 394.365 446.106C393.864 446.607 393.185 446.888 392.477 446.888Z" fill="white"/>
<path d="M449.907 461.58H332.097C331.389 461.58 330.709 461.298 330.208 460.797C329.707 460.296 329.426 459.617 329.426 458.908C329.426 458.2 329.707 457.521 330.208 457.02C330.709 456.519 331.389 456.237 332.097 456.237H449.907C450.615 456.237 451.294 456.519 451.795 457.02C452.296 457.521 452.578 458.2 452.578 458.908C452.578 459.617 452.296 460.296 451.795 460.797C451.294 461.298 450.615 461.58 449.907 461.58Z" fill="white"/>
<path d="M301.042 469.472C310.933 469.472 318.952 461.454 318.952 451.563C318.952 441.672 310.933 433.653 301.042 433.653C291.151 433.653 283.133 441.672 283.133 451.563C283.133 461.454 291.151 469.472 301.042 469.472Z" fill="white"/>
<path d="M297.051 475.754C295.224 474.9 293.135 474.793 291.23 475.455C289.324 476.118 287.752 477.498 286.849 479.301C286.671 479.671 286.524 480.054 286.409 480.448L259.44 482.06L255.443 496.032L292.149 489.83C293.818 490.179 295.557 489.965 297.092 489.222C298.627 488.48 299.873 487.249 300.636 485.724C301.062 484.852 301.311 483.904 301.371 482.935C301.43 481.967 301.298 480.996 300.982 480.078C300.667 479.16 300.173 478.314 299.53 477.587C298.887 476.859 298.107 476.266 297.235 475.841C297.174 475.811 297.113 475.782 297.051 475.754Z" fill="#FFB6B6"/>
<path d="M237.522 406.834C235.745 406.107 233.832 405.771 231.914 405.849C229.995 405.927 228.116 406.418 226.404 407.287C224.692 408.157 223.187 409.384 221.992 410.887C220.797 412.39 219.939 414.133 219.478 415.997L212.063 445.94L213.458 498.323C213.458 498.323 252.16 505.75 258.657 500.976C265.154 496.202 264.544 492.649 265.154 496.202C265.764 499.756 268.553 501.247 268.591 499.833C268.63 498.42 268.945 498.661 270.564 498.236C272.184 497.81 279.329 495.176 279.329 495.176L279.649 480.241C279.649 480.241 267.836 475.762 264.97 477.098C262.104 478.435 265.58 480.652 262.104 478.435C258.628 476.217 258.248 469.219 257.653 475.526C257.059 481.833 255.319 483.008 252.713 480.203C250.107 477.399 238.032 479.19 238.032 479.19L245.716 420.96C246.102 418.031 245.508 415.057 244.026 412.501C242.543 409.946 240.257 407.953 237.522 406.834Z" fill="#7F496B"/>
<path d="M498.157 562.178L498.564 551.148L456.212 544.329L455.612 560.608L498.157 562.178Z" fill="#FFB6B6"/>
<path d="M490.469 565.499L490.068 547.838L497.617 548.117L509.806 531.79C510.408 530.983 511.252 530.39 512.215 530.098C513.178 529.805 514.209 529.827 515.158 530.162C516.107 530.497 516.924 531.126 517.49 531.958C518.056 532.79 518.342 533.781 518.304 534.787L517.53 555.766L509.929 559.107L517.345 560.795L517.053 568.705L490.469 565.499Z" fill="#2F2E41"/>
<path d="M259.798 587.472L393.941 571.874C393.941 571.874 451.868 575.22 465.459 566.378L479.792 564.569L480.569 543.516C480.569 543.516 471.804 543.581 466.765 541.233C461.726 538.885 465.229 536.012 460.424 538.837C455.62 541.662 456.127 542.002 452.413 540.703C448.698 539.405 278.363 532.442 278.363 532.442L259.798 587.472Z" fill="#2F2E41"/>
<path d="M436.563 578.337L444.363 570.527L417.953 536.724L406.441 548.25L436.563 578.337Z" fill="#FFB6B6"/>
<path d="M428.668 575.543L440.385 562.323L445.731 567.662L465.771 563.983C466.76 563.801 467.782 563.94 468.687 564.38C469.592 564.82 470.333 565.538 470.801 566.429C471.269 567.32 471.44 568.337 471.289 569.332C471.138 570.327 470.673 571.248 469.962 571.96L455.126 586.813L447.281 584.092L451.57 590.373L445.976 595.973L428.668 575.543Z" fill="#2F2E41"/>
<path d="M206.874 514.007L208.208 545.007C209.778 581.5 249.967 603.587 281.131 584.533C281.705 584.182 282.282 583.818 282.86 583.442C282.86 583.442 294.674 580.269 294.316 575.245C293.957 570.22 296.843 567.775 299.397 569.145C301.952 570.515 335.393 523.055 335.393 523.055C335.393 523.055 404.875 557.713 420.203 565.872L436.377 561.466C436.377 561.466 442.464 564.341 440.271 560.183C438.078 556.025 437.685 558.016 437.012 553.486C436.338 548.956 434.615 543.339 433.57 543.575C432.525 543.812 347.613 484.381 347.613 484.381C347.613 484.381 333.78 470.381 316.62 479.624C316.263 480.982 316.568 481.029 316.568 481.029L259.884 527.218L251.874 512.007L206.874 514.007Z" fill="#2F2E41"/>
<path d="M244.973 400.104L220.669 388.714L213.393 401.374C213.393 401.374 193.851 429.261 193.568 449.379C193.284 469.497 196.753 475.48 196.753 475.48C196.753 475.48 188.327 481.779 192.54 485.63C196.753 489.48 206.079 491.141 198.916 492.811C191.753 494.48 193.568 511.379 201.568 514.379C209.568 517.379 252.532 517.353 252.532 517.353C252.146 516.043 252.117 514.653 252.45 513.328C252.782 512.003 253.463 510.791 254.422 509.818C257.753 506.48 260.753 508.876 257.753 503.678C254.753 498.48 249.753 501.48 253.753 494.48C257.753 487.48 257.751 485.388 257.751 485.388C257.751 485.388 265.906 469.869 253.623 453.033C252.874 452.007 253.504 451.968 253.504 451.968L243.586 418.732L244.973 400.104Z" fill="#7F496B"/>
<path d="M205.806 352.211C206.012 357.345 202.777 364.618 201.184 369.004C199.48 373.693 206.863 379.917 211.588 381.28C211.834 379.655 212.644 378.169 213.877 377.083C213.536 378.631 213.507 380.231 213.79 381.791L253.737 390.885C260.924 382.563 268.15 370.599 266.574 356.169C266.951 353.429 266.511 350.638 265.308 348.147C264.105 345.657 262.194 343.577 259.813 342.169L239.617 330.238C231.027 328.282 220.209 327.102 214.005 332.417C211.233 334.883 209.055 337.945 207.635 341.374C206.215 344.802 205.59 348.507 205.806 352.211Z" fill="#2F2E41"/>
<path d="M241.514 386.489C254.216 386.489 264.514 376.191 264.514 363.489C264.514 350.786 254.216 340.489 241.514 340.489C228.811 340.489 218.514 350.786 218.514 363.489C218.514 376.191 228.811 386.489 241.514 386.489Z" fill="#FFB6B6"/>
<path d="M214.569 351.201L213.459 356.076L232.863 360.494C232.88 359.508 233.101 358.536 233.512 357.639C233.922 356.742 234.514 355.94 235.249 355.283C234.83 357.195 234.878 359.179 235.388 361.068C245.853 366.94 255.285 369.021 263.742 367.523C264.888 367.784 266.09 367.579 267.085 366.953C268.08 366.328 268.785 365.332 269.046 364.187C272.449 349.239 263.534 333.962 248.66 330.252C245.044 329.348 241.285 329.175 237.601 329.743C233.918 330.311 230.385 331.608 227.21 333.559C224.035 335.511 221.281 338.076 219.111 341.105C216.94 344.135 215.396 347.567 214.569 351.201Z" fill="#2F2E41"/>
<path d="M225.914 319.035C228.472 318.48 231.18 318.614 233.493 316.881L231.976 320.364C236.182 319.211 240.666 319.659 244.561 321.621C245.72 322.14 246.707 322.976 247.411 324.033C247.789 324.671 248.018 325.386 248.083 326.125C248.148 326.864 248.046 327.608 247.785 328.302C247.537 328.898 247.167 329.435 246.699 329.879C246.231 330.324 245.675 330.666 245.067 330.883C243.99 331.207 242.862 331.325 241.742 331.232C237.019 331.122 232.297 331.012 227.575 330.902C225.776 331.013 223.977 330.664 222.351 329.886C221.486 329.352 220.796 328.577 220.365 327.656C219.935 326.736 219.782 325.709 219.927 324.703C220.377 321.537 223.355 319.591 225.914 319.035Z" fill="#2F2E41"/>
<path d="M350.679 499.296C350.624 499.23 350.56 499.172 350.49 499.123C350.319 498.923 350.109 498.759 349.874 498.641L348.191 497.74L337.018 485.335C336.371 484.998 335.619 484.926 334.92 485.134L334.891 485.143L330.105 486.623L325.988 487.9L320.238 489.683L281.072 501.811L255.327 509.781C254.631 510.002 254.049 510.486 253.707 511.131C253.365 511.776 253.29 512.53 253.497 513.229C253.619 513.615 253.819 513.971 254.085 514.274L254.905 515.186L256.623 517.1L260.604 525.35L261.709 526.583C262.061 526.976 262.517 527.26 263.025 527.402C263.532 527.544 264.07 527.539 264.575 527.387L349.389 503.803C349.83 503.66 350.228 503.411 350.55 503.078C350.872 502.745 351.107 502.338 351.234 501.893C351.362 501.447 351.378 500.978 351.281 500.525C351.184 500.072 350.977 499.65 350.679 499.296Z" fill="#CCCCCC"/>
<path d="M345.643 376.59L344.001 376.856C343.551 376.931 343.148 377.181 342.881 377.551L342.158 378.563L335.63 394.885C335.365 395.258 335.258 395.722 335.334 396.173L336.098 400.824L333.208 483.829C333.281 484.259 333.512 484.645 333.855 484.913L346.528 501.866L346.823 502.101L347.462 502.6C347.789 502.853 348.195 502.982 348.608 502.965L349.685 502.914C349.93 502.902 350.169 502.838 350.387 502.727C350.605 502.616 350.798 502.459 350.951 502.268C351.105 502.079 351.218 501.859 351.28 501.623C351.342 501.386 351.352 501.139 351.31 500.898L347.634 378.01C347.559 377.559 347.309 377.156 346.937 376.889C346.565 376.623 346.103 376.515 345.652 376.589L345.643 376.59Z" fill="#CCCCCC"/>
<path d="M342.893 383.04L337.111 400.653L334.874 471.007L343.874 479.007L342.893 383.04Z" fill="#7F496B"/>
<path d="M298.18 490.357C296.352 489.503 294.263 489.395 292.358 490.058C290.453 490.72 288.881 492.1 287.977 493.904C287.799 494.273 287.652 494.657 287.538 495.051L260.568 496.662L256.571 510.635L293.277 504.433C294.947 504.782 296.685 504.568 298.22 503.825C299.756 503.082 301.002 501.852 301.764 500.326C302.624 498.565 302.749 496.534 302.111 494.68C301.473 492.827 300.125 491.303 298.363 490.443C298.303 490.413 298.241 490.385 298.18 490.357Z" fill="#FFB6B6"/>
<path d="M238.651 421.437C236.874 420.71 234.961 420.374 233.042 420.452C231.124 420.53 229.244 421.02 227.532 421.89C225.82 422.759 224.315 423.987 223.12 425.49C221.925 426.993 221.067 428.735 220.606 430.599L213.191 460.542L214.586 512.926C214.586 512.926 253.288 520.352 259.785 515.579C266.282 510.805 265.672 507.251 266.282 510.805C266.892 514.359 269.681 515.85 269.72 514.436C269.758 513.022 270.074 513.264 271.693 512.838C273.312 512.412 280.458 509.779 280.458 509.779L280.778 494.843C280.778 494.843 268.964 490.365 266.098 491.701C263.232 493.037 266.708 495.254 263.232 493.037C259.756 490.82 259.376 483.821 258.782 490.129C258.187 496.436 256.447 497.61 253.841 494.806C251.235 492.001 239.161 493.793 239.161 493.793L246.844 435.563C247.231 432.634 246.636 429.659 245.154 427.104C243.672 424.548 241.385 422.556 238.651 421.437Z" fill="#7F496B"/>
<path d="M5.26701e-06 595.139C-0.000460802 595.296 0.0300089 595.451 0.0896507 595.595C0.149292 595.74 0.236938 595.871 0.347539 595.982C0.45814 596.092 0.589511 596.18 0.734106 596.24C0.8787 596.299 1.03366 596.33 1.19007 596.329H716.48C716.796 596.329 717.098 596.204 717.322 595.981C717.545 595.757 717.67 595.455 717.67 595.139C717.67 594.824 717.545 594.521 717.322 594.298C717.098 594.075 716.796 593.949 716.48 593.949H1.19001C1.03361 593.949 0.878661 593.979 0.734075 594.039C0.58949 594.099 0.458118 594.186 0.347524 594.297C0.236931 594.407 0.149291 594.539 0.0896507 594.683C0.0300107 594.828 -0.000455455 594.983 5.26701e-06 595.139Z" fill="#CCCCCC"/>
<path d="M631.185 337.618H428.526C425.239 337.614 422.087 336.307 419.763 333.982C417.438 331.658 416.131 328.506 416.127 325.219V297.906C416.131 294.619 417.438 291.467 419.763 289.143C422.087 286.818 425.239 285.511 428.526 285.507H631.185C634.472 285.511 637.623 286.818 639.948 289.143C642.272 291.467 643.58 294.619 643.584 297.906V325.219C643.58 328.506 642.272 331.658 639.948 333.982C637.623 336.307 634.472 337.614 631.185 337.618Z" fill="#E6E6E6"/>
<path d="M554.477 306.888H494.765C494.056 306.888 493.377 306.607 492.876 306.106C492.375 305.605 492.094 304.925 492.094 304.217C492.094 303.509 492.375 302.829 492.876 302.328C493.377 301.827 494.056 301.546 494.765 301.546H554.477C555.185 301.546 555.864 301.827 556.365 302.328C556.866 302.829 557.148 303.509 557.148 304.217C557.148 304.925 556.866 305.605 556.365 306.106C555.864 306.607 555.185 306.888 554.477 306.888Z" fill="white"/>
<path d="M611.907 321.58H494.097C493.389 321.58 492.709 321.298 492.208 320.797C491.707 320.296 491.426 319.617 491.426 318.908C491.426 318.2 491.707 317.521 492.208 317.02C492.709 316.519 493.389 316.237 494.097 316.237H611.907C612.615 316.237 613.294 316.519 613.795 317.02C614.296 317.521 614.578 318.2 614.578 318.908C614.578 319.617 614.296 320.296 613.795 320.797C613.294 321.298 612.615 321.58 611.907 321.58Z" fill="white"/>
<path d="M463.042 329.472C472.933 329.472 480.952 321.454 480.952 311.563C480.952 301.672 472.933 293.653 463.042 293.653C453.151 293.653 445.133 301.672 445.133 311.563C445.133 321.454 453.151 329.472 463.042 329.472Z" fill="white"/>
<path d="M566.185 407.618H363.526C360.239 407.614 357.087 406.307 354.763 403.982C352.438 401.658 351.131 398.506 351.127 395.219V367.906C351.131 364.619 352.438 361.467 354.763 359.143C357.087 356.818 360.239 355.511 363.526 355.507H566.185C569.472 355.511 572.623 356.818 574.948 359.143C577.272 361.467 578.58 364.619 578.584 367.906V395.219C578.58 398.506 577.272 401.658 574.948 403.982C572.623 406.307 569.472 407.614 566.185 407.618Z" fill="#E6E6E6"/>
<path d="M489.477 376.888H429.765C429.056 376.888 428.377 376.607 427.876 376.106C427.375 375.605 427.094 374.925 427.094 374.217C427.094 373.509 427.375 372.829 427.876 372.328C428.377 371.827 429.056 371.546 429.765 371.546H489.477C490.185 371.546 490.864 371.827 491.365 372.328C491.866 372.829 492.148 373.509 492.148 374.217C492.148 374.925 491.866 375.605 491.365 376.106C490.864 376.607 490.185 376.888 489.477 376.888Z" fill="white"/>
<path d="M546.907 391.58H429.097C428.389 391.58 427.709 391.298 427.208 390.797C426.707 390.296 426.426 389.617 426.426 388.908C426.426 388.2 426.707 387.521 427.208 387.02C427.709 386.519 428.389 386.237 429.097 386.237H546.907C547.615 386.237 548.294 386.519 548.795 387.02C549.296 387.521 549.578 388.2 549.578 388.908C549.578 389.617 549.296 390.296 548.795 390.797C548.294 391.298 547.615 391.58 546.907 391.58Z" fill="white"/>
<path d="M398.042 399.472C407.933 399.472 415.952 391.454 415.952 381.563C415.952 371.672 407.933 363.653 398.042 363.653C388.151 363.653 380.133 371.672 380.133 381.563C380.133 391.454 388.151 399.472 398.042 399.472Z" fill="white"/>
</g>
<defs>
<clipPath id="clip0_0_1">
<rect width="717.67" height="596.329" fill="white"/>
</clipPath>
</defs>
</svg>
